<svg width="34" height="34" viewBox="0 0 34 34" fill="none" xmlns="http://www.w3.org/2000/svg">
<g clip-path="url(#clip0_150_2279)">
<path d="M34 16.983C34 7.6075 26.384 0 17 0C7.616 0 0 7.6075 0 16.983C0 22.1468 2.346 26.8005 6.018 29.9242C6.052 29.9582 6.086 29.9583 6.086 29.9923C6.392 30.2303 6.698 30.4682 7.038 30.7062C7.208 30.8082 7.344 30.9421 7.514 31.0781C10.3245 32.9805 13.6401 33.9982 17.034 34C20.4279 33.9982 23.7435 32.9805 26.554 31.0781C26.724 30.9761 26.86 30.8423 27.03 30.7381C27.336 30.5023 27.676 30.2643 27.982 30.0263C28.016 29.9923 28.05 29.9922 28.05 29.9582C31.654 26.7984 34 22.1468 34 16.983ZM17 31.8601C13.804 31.8601 10.88 30.8401 8.466 29.1422C8.5 28.8702 8.568 28.6004 8.636 28.3284C8.83927 27.5915 9.13636 26.8837 9.52 26.2225C9.894 25.5765 10.336 24.9985 10.88 24.4885C11.39 23.9785 12.002 23.5046 12.614 23.1306C13.26 22.7566 13.94 22.4846 14.688 22.2806C15.4421 22.0787 16.2194 21.9765 17 21.9768C19.3178 21.9592 21.5507 22.8484 23.222 24.4545C24.004 25.2365 24.616 26.1538 25.058 27.2064C25.296 27.8184 25.466 28.4637 25.568 29.1422C23.0588 30.9063 20.0673 31.8553 17 31.8601ZM11.798 16.1351C11.499 15.449 11.3484 14.7075 11.356 13.9591C11.356 13.2132 11.492 12.4652 11.798 11.7853C12.104 11.1053 12.512 10.4954 13.022 9.98537C13.532 9.47537 14.144 9.0695 14.824 8.7635C15.504 8.4575 16.252 8.3215 17 8.3215C17.782 8.3215 18.496 8.4575 19.176 8.7635C19.856 9.0695 20.468 9.4775 20.978 9.98537C21.488 10.4954 21.896 11.1074 22.202 11.7853C22.508 12.4652 22.644 13.2132 22.644 13.9591C22.644 14.7411 22.508 15.4551 22.202 16.133C21.9084 16.8039 21.4934 17.4148 20.978 17.935C20.4576 18.4497 19.8467 18.8639 19.176 19.1569C17.7708 19.7331 16.1952 19.7331 14.79 19.1569C14.1193 18.8639 13.5084 18.4497 12.988 17.935C12.4721 17.4221 12.0671 16.8109 11.798 16.1351ZM27.574 27.4104C27.574 27.3424 27.54 27.3084 27.54 27.2404C27.2062 26.1764 26.7133 25.1691 26.078 24.2526C25.4422 23.3295 24.6615 22.515 23.766 21.8407C23.0819 21.3259 22.3402 20.8923 21.556 20.5488C21.9111 20.3112 22.2414 20.0385 22.542 19.7349C23.0489 19.2344 23.4941 18.6751 23.868 18.0689C24.6236 16.8328 25.0127 15.4076 24.99 13.9591C25.0011 12.887 24.7928 11.824 24.378 10.8354C23.9689 9.88264 23.3802 9.01759 22.644 8.2875C21.9071 7.56723 21.0423 6.99071 20.094 6.5875C19.1039 6.17281 18.0394 5.96526 16.966 5.97762C15.8925 5.96593 14.8279 6.17421 13.838 6.58963C12.8793 6.98791 12.0117 7.57716 11.288 8.3215C10.564 9.05456 9.98693 9.9194 9.588 10.8694C9.17315 11.858 8.96489 12.921 8.976 13.9931C8.976 14.7411 9.078 15.4544 9.282 16.133C9.486 16.847 9.758 17.493 10.132 18.1029C10.472 18.7149 10.948 19.2589 11.458 19.7689C11.764 20.0749 12.104 20.3462 12.478 20.5827C11.6903 20.9334 10.9481 21.3787 10.268 21.9088C9.384 22.5888 8.602 23.4026 7.956 24.2866C7.31483 25.1996 6.82145 26.2079 6.494 27.2744C6.46 27.3424 6.46 27.4104 6.46 27.4444C3.774 24.7265 2.108 21.0588 2.108 16.983C2.108 8.7975 8.806 2.10587 17 2.10587C25.194 2.10587 31.892 8.7975 31.892 16.983C31.8876 20.8929 30.3351 24.642 27.574 27.4104Z" fill="white"/>
</g>
<defs>
<clipPath id="clip0_150_2279">
<rect width="34" height="34" fill="white"/>
</clipPath>
</defs>
</svg>
