<svg width="40" height="40" viewBox="0 0 40 40" fill="none" xmlns="http://www.w3.org/2000/svg">
<path d="M7.34949 27.1975C7.22386 26.6952 6.71483 26.3899 6.21253 26.5155C5.71024 26.6411 5.40489 27.1502 5.53052 27.6525L7.34949 27.1975ZM9.16001 33.9417L8.58236 34.6801L8.58337 34.6809L9.16001 33.9417ZM30.8417 33.9417L31.4179 34.6812L31.4193 34.6801L30.8417 33.9417ZM33.56 27.425L32.6505 27.1976L32.6504 27.1979L33.56 27.425ZM34.205 16.9233L34.9443 16.3468L34.944 16.3464L34.205 16.9233ZM5.79667 16.9233L6.5354 17.5006L6.53562 17.5003L5.79667 16.9233ZM4.2141 21.8136C4.29525 22.325 4.77559 22.6737 5.28696 22.5926C5.79832 22.5114 6.14708 22.0311 6.06592 21.5197L4.2141 21.8136ZM31.3167 11.4917L32.2212 11.2451L32.2212 11.2451L31.3167 11.4917ZM30.1633 8.34833L30.9164 7.78997L30.9155 7.78868L30.1633 8.34833ZM28.3333 6.95333L27.992 7.82649L27.993 7.82686L28.3333 6.95333ZM8.68334 11.4917L7.77885 11.2451L7.77884 11.2451L8.68334 11.4917ZM9.83667 8.34833L9.08455 7.78868L9.08359 7.78997L9.83667 8.34833ZM11.6667 6.95333L12.0071 7.82686L12.008 7.82649L11.6667 6.95333ZM16.6667 5V4.0625V5ZM23.3333 5V4.0625V5ZM5.53052 27.6525C5.98 29.4496 6.33565 30.8777 6.75704 31.9839C7.18739 33.1137 7.72065 34.006 8.58237 34.6801L9.73765 33.2033C9.24436 32.8174 8.87262 32.2705 8.50922 31.3165C8.13687 30.339 7.81002 29.0388 7.34949 27.1975L5.53052 27.6525ZM8.58337 34.6809C9.44632 35.354 10.4416 35.6551 11.6421 35.7986C12.8176 35.9391 14.2895 35.9375 16.1417 35.9375V34.0625C14.2439 34.0625 12.9032 34.0609 11.8646 33.9368C10.8509 33.8157 10.2304 33.5876 9.73664 33.2025L8.58337 34.6809ZM16.1417 35.9375H23.8583V34.0625H16.1417V35.9375ZM23.8583 35.9375C25.7105 35.9375 27.1824 35.9391 28.3581 35.7986C29.5589 35.6551 30.5543 35.3541 31.4179 34.6812L30.2655 33.2021C29.7707 33.5876 29.1495 33.8157 28.1357 33.9368C27.0968 34.0609 25.7561 34.0625 23.8583 34.0625V35.9375ZM31.4193 34.6801C32.281 34.0059 32.8143 33.1137 33.2445 31.9838C33.6657 30.8774 34.0209 29.4493 34.4696 27.6521L32.6504 27.1979C32.1908 29.0391 31.8643 30.3392 31.4922 31.3166C31.129 32.2705 30.7573 32.8174 30.264 33.2033L31.4193 34.6801ZM34.4695 27.6524C35.1773 24.8211 35.7355 22.5986 35.9139 20.8454C36.0949 19.0676 35.9085 17.5831 34.9443 16.3468L33.4658 17.4999C34.0016 18.1869 34.2076 19.0932 34.0486 20.6555C33.8871 22.2422 33.3727 24.3089 32.6505 27.1976L34.4695 27.6524ZM34.944 16.3464C33.9787 15.11 32.5832 14.5685 30.8143 14.3126C29.0697 14.0602 26.778 14.0625 23.86 14.0625V15.9375C26.8371 15.9375 28.967 15.9398 30.5458 16.1683C32.1002 16.3932 32.9297 16.8133 33.4661 17.5003L34.944 16.3464ZM23.86 14.0625H16.1417V15.9375H23.86V14.0625ZM16.1417 14.0625C13.2229 14.0625 10.9312 14.0602 9.18679 14.3126C7.41796 14.5685 6.02296 15.1101 5.05773 16.3464L6.53562 17.5003C7.07205 16.8132 7.90122 16.3931 9.45531 16.1683C11.0338 15.9398 13.1638 15.9375 16.1417 15.9375V14.0625ZM5.05795 16.3461C3.92448 17.7967 3.86142 19.5914 4.2141 21.8136L6.06592 21.5197C5.73193 19.4153 5.90554 18.3066 6.5354 17.5006L5.05795 16.3461ZM33.4045 15.5868L32.2212 11.2451L30.4122 11.7382L31.5955 16.0799L33.4045 15.5868ZM32.2212 11.2451C31.7856 9.64736 31.5153 8.59774 30.9164 7.78997L29.4103 8.90669C29.748 9.36226 29.9344 9.98597 30.4122 11.7383L32.2212 11.2451ZM30.9155 7.78868C30.3434 7.01992 29.5666 6.42771 28.6737 6.07981L27.993 7.82686C28.5578 8.04696 29.0493 8.42163 29.4112 8.90799L30.9155 7.78868ZM28.6747 6.08018C27.7367 5.71352 26.6531 5.72917 25 5.72917V7.60417C26.8136 7.60417 27.4633 7.61981 27.992 7.82649L28.6747 6.08018ZM8.40451 16.0799L9.58785 11.7382L7.77884 11.2451L6.5955 15.5868L8.40451 16.0799ZM9.58783 11.7383C10.0656 9.98597 10.252 9.36226 10.5898 8.90669L9.08359 7.78997C8.48469 8.59774 8.21445 9.64737 7.77885 11.2451L9.58783 11.7383ZM10.5888 8.90799C10.9507 8.42163 11.4422 8.04696 12.0071 7.82686L11.3263 6.07981C10.4335 6.42771 9.65657 7.01992 9.08455 7.78868L10.5888 8.90799ZM12.008 7.82649C12.5367 7.61981 13.1864 7.60417 15 7.60417V5.72917C13.3469 5.72917 12.2633 5.71352 11.3253 6.08018L12.008 7.82649ZM15.9375 6.66667C15.9375 6.47328 16.0143 6.28781 16.1511 6.15107L14.8253 4.82524C14.3369 5.31362 14.0625 5.976 14.0625 6.66667H15.9375ZM16.1511 6.15107C16.2878 6.01432 16.4733 5.9375 16.6667 5.9375V4.0625C15.976 4.0625 15.3136 4.33687 14.8253 4.82524L16.1511 6.15107ZM16.6667 5.9375H23.3333V4.0625H16.6667V5.9375ZM23.3333 5.9375C23.5267 5.9375 23.7122 6.01432 23.8489 6.15107L25.1748 4.82524C24.6864 4.33687 24.024 4.0625 23.3333 4.0625V5.9375ZM23.8489 6.15107C23.9857 6.28781 24.0625 6.47328 24.0625 6.66667H25.9375C25.9375 5.976 25.6631 5.31362 25.1748 4.82524L23.8489 6.15107ZM24.0625 6.66667C24.0625 6.86005 23.9857 7.04552 23.8489 7.18227L25.1748 8.50809C25.6631 8.01971 25.9375 7.35733 25.9375 6.66667H24.0625ZM23.8489 7.18227C23.7122 7.31901 23.5267 7.39583 23.3333 7.39583V9.27083C24.024 9.27083 24.6864 8.99647 25.1748 8.50809L23.8489 7.18227ZM23.3333 7.39583H16.6667V9.27083H23.3333V7.39583ZM16.6667 7.39583C16.4733 7.39583 16.2878 7.31901 16.1511 7.18227L14.8253 8.50809C15.3136 8.99647 15.976 9.27083 16.6667 9.27083V7.39583ZM16.1511 7.18227C16.0143 7.04552 15.9375 6.86005 15.9375 6.66667H14.0625C14.0625 7.35733 14.3369 8.01971 14.8253 8.50809L16.1511 7.18227Z" fill="white"/>
</svg>
