<svg width="51" height="50" viewBox="0 0 51 50" fill="none" xmlns="http://www.w3.org/2000/svg">
<path d="M7.83037 37.7009L23.9393 46.8303C24.5125 47.1577 25.0753 47.3214 25.6277 47.3214C26.1801 47.3214 26.7497 47.1577 27.3366 46.8303L43.4259 37.7009C44.3676 37.155 45.0804 36.5375 45.5643 35.8482C46.0488 35.1595 46.2911 34.0851 46.2911 32.625V16.4134C46.2911 15.3491 46.0899 14.469 45.6875 13.7732C45.2845 13.0768 44.6536 12.4762 43.7947 11.9714L29.3009 3.74284C28.0735 3.03332 26.8527 2.67856 25.6384 2.67856C24.4241 2.67856 23.1958 3.03332 21.9536 3.74284L7.48215 11.9714C6.60894 12.4768 5.97084 13.0774 5.56787 13.7732C5.16549 14.469 4.96429 15.3491 4.96429 16.4134V32.625C4.96429 34.0851 5.20983 35.1595 5.7009 35.8482C6.19197 36.5369 6.90179 37.1544 7.83037 37.7009ZM9.67233 34.9991C9.07114 34.658 8.65477 34.2997 8.42322 33.9241C8.19108 33.5491 8.07501 33.0818 8.07501 32.5223V17.0678L24.0214 26.1768V43.1661L9.67233 34.9991ZM41.6036 34.9991L27.2348 43.1661V26.1768L43.1786 17.0678V32.5223C43.1786 33.0818 43.0625 33.5491 42.8304 33.9241C42.5982 34.2991 42.1896 34.6577 41.6045 35M25.6393 23.3125L9.83572 14.3661L16.1607 10.7437L31.9625 19.7295L25.6393 23.3125ZM35.2589 17.8678L19.3947 8.90088L23.325 6.66963C24.881 5.78272 26.4229 5.78272 27.9509 6.66963L41.4402 14.3661L35.2589 17.8678Z" fill="#F05A39"/>
</svg>
