<svg width="50" height="50" viewBox="0 0 50 50" fill="none" xmlns="http://www.w3.org/2000/svg">
<path d="M13.3333 9.91665C16.4382 6.87393 20.6183 5.17943 24.9655 5.20138C29.3126 5.22334 33.4755 6.95997 36.5494 10.0339C39.6233 13.1078 41.36 17.2707 41.3819 21.6178C41.4039 25.965 39.7094 30.1452 36.6667 33.25L27.9458 41.9708C27.1645 42.7519 26.1049 43.1908 25 43.1908C23.8951 43.1908 22.8355 42.7519 22.0542 41.9708L13.3333 33.25C10.2393 30.1557 8.50119 25.9591 8.50119 21.5833C8.50119 17.2075 10.2393 13.011 13.3333 9.91665Z" stroke="#F05A39" stroke-width="3.125" stroke-linejoin="round"/>
<path d="M25 27.8333C28.4518 27.8333 31.25 25.0351 31.25 21.5833C31.25 18.1315 28.4518 15.3333 25 15.3333C21.5482 15.3333 18.75 18.1315 18.75 21.5833C18.75 25.0351 21.5482 27.8333 25 27.8333Z" stroke="#F05A39" stroke-width="3.125" stroke-linecap="round" stroke-linejoin="round"/>
</svg>
