<svg width="51" height="50" viewBox="0 0 51 50" fill="none" xmlns="http://www.w3.org/2000/svg">
<path d="M48.4167 8.54166V4.79166L44.6667 4.37499C44.4583 4.37499 43.2083 4.16666 41.125 4.16666C32.5833 4.16666 26.3333 6.66666 22.7917 11.0417C20.0833 9.37499 16.3333 8.33332 11.9583 8.33332C9.875 8.33332 8.41667 8.54166 8.41667 8.54166L4.45834 9.16666L4.66667 12.7083C4.875 18.9583 8 30.8333 18.8333 30.8333H19.25V37.9167C11.3333 38.9583 4.66667 41.6667 4.66667 41.6667V45.8333H46.3333V41.6667C46.3333 41.6667 39.6667 38.9583 31.75 37.9167V31.25C44.875 31.0417 48.4167 16.25 48.4167 8.54166ZM25.5 37.5H23.4167V25.8333C23.4167 25.8333 23 18.75 17.1667 18.75C17.1667 18.75 20.2917 20.4167 21.125 26.4583C20.2917 26.6667 19.4583 26.6667 18.8333 26.6667C9.25 26.6667 8.83334 12.7083 8.83334 12.7083C8.83334 12.7083 10.0833 12.5 11.9583 12.5C15.9167 12.5 22.375 13.3333 24.25 18.9583C25.2917 9.58332 35.9167 8.33332 41.125 8.33332C43 8.33332 44.25 8.54166 44.25 8.54166C44.25 8.54166 44.25 27.2917 31.125 27.2917H29.6667C29.6667 23.125 33.8333 16.875 33.8333 16.875C27.5833 18.9583 27.5833 27.0833 27.5833 27.0833V37.5H25.5Z" fill="#F05A39"/>
</svg>
