<svg width="50" height="50" viewBox="0 0 50 50" fill="none" xmlns="http://www.w3.org/2000/svg">
<path d="M14.9396 26.8875L10.4542 40.2437L16.0208 38.3896L19.2875 43.2646L23.0896 32.4667M35.0271 26.8875L39.5146 40.2437L33.9458 38.3896L30.6792 43.2646L26.8771 32.4667M19.0937 8.95833C20.3021 9.1 21.4958 8.60417 22.25 7.65C22.5775 7.23396 22.9952 6.89767 23.4716 6.66644C23.9479 6.4352 24.4705 6.31506 25 6.31506C25.5295 6.31506 26.0521 6.4352 26.5284 6.66644C27.0048 6.89767 27.4225 7.23396 27.75 7.65C28.1205 8.1196 28.6051 8.48642 29.1576 8.71547C29.7102 8.94451 30.3122 9.02812 30.9062 8.95833C31.4318 8.89607 31.9646 8.95378 32.4646 9.12713C32.9646 9.30048 33.4187 9.58495 33.7929 9.95915C34.1671 10.3333 34.4516 10.7875 34.6249 11.2875C34.7983 11.7875 34.856 12.3203 34.7937 12.8458C34.6521 14.0542 35.1479 15.25 36.1021 16.0042C36.5177 16.3317 36.8537 16.7493 37.0847 17.2254C37.3157 17.7016 37.4357 18.2239 37.4357 18.7531C37.4357 19.2823 37.3157 19.8047 37.0847 20.2808C36.8537 20.757 36.5177 21.1745 36.1021 21.5021C35.6325 21.8725 35.2657 22.3572 35.0366 22.9097C34.8076 23.4623 34.724 24.0643 34.7937 24.6583C34.856 25.1839 34.7983 25.7166 34.6249 26.2166C34.4516 26.7166 34.1671 27.1708 33.7929 27.545C33.4187 27.9192 32.9646 28.2037 32.4646 28.377C31.9646 28.5504 31.4318 28.6081 30.9062 28.5458C30.3119 28.4757 29.7094 28.5591 29.1565 28.7882C28.6035 29.0172 28.1186 29.3842 27.7479 29.8542C27.4203 30.2698 27.0028 30.6058 26.5266 30.8368C26.0505 31.0678 25.5282 31.1878 24.999 31.1878C24.4697 31.1878 23.9474 31.0678 23.4713 30.8368C22.9951 30.6058 22.5776 30.2698 22.25 29.8542C21.8795 29.3846 21.3949 29.0177 20.8424 28.7887C20.2898 28.5597 19.6878 28.476 19.0937 28.5458C18.5681 28.6084 18.035 28.551 17.5348 28.3778C17.0345 28.2046 16.58 27.9202 16.2056 27.5459C15.8312 27.1717 15.5465 26.7174 15.373 26.2172C15.1996 25.7171 15.1418 25.184 15.2042 24.6583C15.2742 24.0645 15.1909 23.4626 14.9622 22.91C14.7336 22.3575 14.3671 21.8728 13.8979 21.5021C13.4819 21.1745 13.1456 20.7569 12.9143 20.2805C12.6831 19.8042 12.563 19.2816 12.563 18.7521C12.563 18.2226 12.6831 17.7 12.9143 17.2236C13.1456 16.7473 13.4819 16.3296 13.8979 16.0021C14.8521 15.25 15.3479 14.0542 15.2042 12.8458C15.1418 12.3201 15.1996 11.7871 15.373 11.2869C15.5465 10.7868 15.8312 10.3325 16.2056 9.95823C16.58 9.584 17.0345 9.29957 17.5348 9.12638C18.035 8.95318 18.5681 8.89573 19.0937 8.95833ZM29.1667 18.75C29.1667 19.8551 28.7277 20.9149 27.9463 21.6963C27.1649 22.4777 26.1051 22.9167 25 22.9167C23.8949 22.9167 22.8351 22.4777 22.0537 21.6963C21.2723 20.9149 20.8333 19.8551 20.8333 18.75C20.8333 17.6449 21.2723 16.5851 22.0537 15.8037C22.8351 15.0223 23.8949 14.5833 25 14.5833C26.1051 14.5833 27.1649 15.0223 27.9463 15.8037C28.7277 16.5851 29.1667 17.6449 29.1667 18.75Z" stroke="#F05A39" stroke-width="4.16667" stroke-linecap="round" stroke-linejoin="round"/>
</svg>
